<svg width="133" height="34" viewBox="0 0 133 34" fill="none" xmlns="http://www.w3.org/2000/svg">
<g clip-path="url(#clip0_64_102)">
<path d="M108.407 2.81152C107.633 1.99157 106.588 1.58159 105.269 1.58159C104.039 1.58159 103.425 1.88419 103.425 2.48939C103.425 2.80176 103.687 3.12388 104.213 3.45577C104.391 3.58267 104.624 3.71933 104.912 3.86575L105.611 4.21715C107.792 5.30067 108.883 6.46227 108.883 7.70196C108.883 8.53168 108.561 9.19545 107.916 9.69328C107.212 10.2399 106.226 10.5132 104.957 10.5132C103.618 10.5132 102.349 10.196 101.149 9.5615V7.52626C102.061 8.47311 103.271 8.94653 104.778 8.94653C106.017 8.94653 106.637 8.63417 106.637 8.00944C106.637 7.68732 106.354 7.35055 105.789 6.99914C105.591 6.88201 105.309 6.72582 104.942 6.5306C104.902 6.52084 104.862 6.50619 104.823 6.48667L104.005 6.06205C103.568 5.82778 103.197 5.60815 102.889 5.40316C102.522 5.15913 102.22 4.91021 101.982 4.65642C101.437 4.09026 101.164 3.47041 101.164 2.79688C101.164 2.00621 101.486 1.3522 102.131 0.834844C102.825 0.268685 103.787 -0.00951362 105.016 0.000248193C105.641 0.0100094 106.26 0.0929809 106.875 0.249162C107.371 0.385821 107.881 0.576168 108.407 0.820202V2.81152Z" fill="white"/>
<path d="M77.6926 9.72256C77.9702 9.59567 78.2676 9.43948 78.5849 9.25402V6.54524C78.5849 6.32073 78.6295 6.07669 78.7187 5.81314C78.8179 5.50077 78.9468 5.27138 79.1054 5.12496H75.893C76.0517 5.27138 76.1806 5.50077 76.2797 5.81314C76.3689 6.07669 76.4136 6.32073 76.4136 6.54524V8.69762C75.8187 8.86356 75.2188 8.94653 74.614 8.94653C73.6127 8.94653 72.765 8.63905 72.0709 8.02409C71.2976 7.34079 70.9109 6.41834 70.9109 5.25674C70.9109 4.1049 71.2976 3.18733 72.0709 2.50404C72.7749 1.88907 73.6275 1.58159 74.6289 1.58159C76.3243 1.58159 77.5587 2.03549 78.332 2.9433V1.14233C77.2513 0.380941 75.893 0.000248193 74.2571 0.000248193C72.6906 0.000248193 71.362 0.439509 70.2714 1.31803C69.7063 1.77682 69.27 2.32345 68.9627 2.95794C68.6355 3.651 68.4719 4.41726 68.4719 5.25674C68.4719 6.10598 68.6355 6.87224 68.9627 7.55554C69.27 8.19979 69.7063 8.75131 70.2714 9.21009C71.362 10.0886 72.6906 10.5279 74.2571 10.5279C75.08 10.5279 75.8881 10.3961 76.6813 10.1325C77.0183 10.0252 77.3555 9.88851 77.6926 9.72256Z" fill="white"/>
<path d="M43.3958 9.69328C43.2967 9.99588 43.1678 10.2204 43.0092 10.3668H46.2215C46.0629 10.2204 45.934 9.99588 45.8349 9.69328C45.7456 9.43948 45.701 9.20033 45.701 8.97582V6.89665L46.9354 5.49101C47.213 5.61791 47.5203 5.9986 47.8574 6.63309L49.8205 10.3668L52.7503 10.3961C52.5322 10.2692 52.319 10.0837 52.1108 9.8397C51.9522 9.65423 51.8084 9.44924 51.6795 9.22473L49.8354 5.76921C49.3694 4.90045 48.7349 4.43191 47.9318 4.36358L50.9211 0.966623C50.9905 0.898293 51.159 0.756753 51.4267 0.542004L51.977 0.117384H48.7795C49.0175 0.507838 48.9828 0.87389 48.6754 1.21554L45.701 4.55392V1.53766C45.701 1.31315 45.7456 1.06912 45.8349 0.80556C45.934 0.493196 46.0629 0.263804 46.2215 0.117384H43.0092C43.1678 0.263804 43.2967 0.493196 43.3958 0.80556C43.4851 1.06912 43.5297 1.31315 43.5297 1.53766V8.97582C43.5297 9.20033 43.4851 9.43948 43.3958 9.69328Z" fill="white"/>
<path d="M53.6671 9.59078C53.6671 9.89339 53.5382 10.1521 53.2804 10.3668H55.7789C55.5211 10.1521 55.3922 9.89339 55.3922 9.59078V3.99752L62.0995 10.3668H63.2744V0.893412C63.2744 0.59081 63.4033 0.332134 63.661 0.117384H61.1625C61.4203 0.332134 61.5492 0.59081 61.5492 0.893412V6.48667L54.7973 0.117384H53.6671V9.59078Z" fill="white"/>
<path d="M64.3877 10.3668C64.5463 10.2204 64.6752 9.99588 64.7744 9.69328C64.8636 9.43948 64.9082 9.20033 64.9082 8.97582V1.53766C64.9082 1.31315 64.8636 1.06912 64.7744 0.80556C64.6752 0.493196 64.5463 0.263804 64.3877 0.117384H67.6C67.4414 0.263804 67.3125 0.493196 67.2134 0.80556C67.1241 1.06912 67.0795 1.31315 67.0795 1.53766V8.97582C67.0795 9.20033 67.1241 9.43948 67.2134 9.69328C67.3125 9.99588 67.4414 10.2204 67.6 10.3668H64.3877Z" fill="white"/>
<path d="M79.7535 10.3668C79.9121 10.2204 80.041 9.99588 80.1402 9.69328C80.2294 9.43948 80.274 9.20033 80.274 8.97582V1.53766C80.274 1.31315 80.2294 1.06912 80.1402 0.80556C80.041 0.493196 79.9121 0.263804 79.7535 0.117384H82.9658C82.8072 0.263804 82.6783 0.493196 82.5792 0.80556C82.4899 1.06912 82.4453 1.31315 82.4453 1.53766V4.36358H87.2638V1.53766C87.2638 1.31315 87.2192 1.06912 87.13 0.80556C87.0309 0.493196 86.902 0.263804 86.7433 0.117384H89.9557C89.797 0.263804 89.6682 0.493196 89.569 0.80556C89.4798 1.06912 89.4352 1.31315 89.4352 1.53766V8.97582C89.4352 9.20033 89.4798 9.43948 89.569 9.69328C89.6682 9.99588 89.797 10.2204 89.9557 10.3668H86.7433C86.902 10.2204 87.0309 9.99588 87.13 9.69328C87.2192 9.43948 87.2638 9.20033 87.2638 8.97582V5.91563H82.4453V8.97582C82.4453 9.20033 82.4899 9.43948 82.5792 9.69328C82.6783 9.99588 82.8072 10.2204 82.9658 10.3668H79.7535Z" fill="white"/>
<path d="M96.7124 9.67864C96.6232 9.41508 96.5786 9.17105 96.5786 8.94653V1.71337H98.2443C98.7003 1.70361 99.1366 1.7817 99.553 1.94764C99.7116 2.01597 99.8703 2.09406 100.029 2.18191C100.138 2.24048 100.262 2.31857 100.401 2.41618L99.8356 0.117384H91.1503L90.5852 2.41618C90.724 2.31857 90.8479 2.24048 90.957 2.18191C91.1156 2.09406 91.2742 2.01597 91.4329 1.94764C91.8493 1.7817 92.2855 1.70361 92.7416 1.71337H94.4073V8.94653C94.4073 9.17105 94.3627 9.41508 94.2734 9.67864C94.1743 9.991 94.0454 10.2204 93.8868 10.3668H97.0991C96.9405 10.2204 96.8116 9.991 96.7124 9.67864Z" fill="white"/>
<path fill-rule="evenodd" clip-rule="evenodd" d="M123.158 7.55554C123.455 6.87224 123.604 6.10598 123.604 5.25674C123.604 4.41726 123.455 3.651 123.158 2.95794C122.87 2.32345 122.469 1.77682 121.953 1.31803C120.962 0.439509 119.752 0.000248193 118.325 0.000248193C116.887 0.000248193 115.667 0.439509 114.666 1.31803C114.151 1.77682 113.754 2.32345 113.476 2.95794C113.169 3.651 113.015 4.41726 113.015 5.25674C113.015 6.10598 113.169 6.87224 113.476 7.55554C113.754 8.19979 114.151 8.75131 114.666 9.21009C115.667 10.0886 116.887 10.5279 118.325 10.5279C119.762 10.5279 120.972 10.0886 121.953 9.21009C122.469 8.75131 122.87 8.19979 123.158 7.55554ZM116.347 8.02409C115.752 7.34079 115.454 6.41834 115.454 5.25674C115.454 4.1049 115.752 3.18733 116.347 2.50404C116.882 1.88907 117.541 1.58159 118.325 1.58159C119.088 1.58159 119.737 1.88907 120.273 2.50404C120.868 3.18733 121.165 4.1049 121.165 5.25674C121.165 6.41834 120.868 7.34079 120.273 8.02409C119.737 8.63905 119.088 8.94653 118.325 8.94653C117.541 8.94653 116.882 8.63905 116.347 8.02409Z" fill="white"/>
<path d="M124.486 10.3668C124.644 10.2204 124.773 9.99588 124.872 9.69328C124.962 9.43948 125.006 9.20033 125.006 8.97582V1.53766C125.006 1.31315 124.962 1.06912 124.872 0.80556C124.773 0.493196 124.644 0.263804 124.486 0.117384H131.818V2.24048C131.599 2.07454 131.386 1.94764 131.178 1.85979C130.891 1.75241 130.558 1.70361 130.182 1.71337H127.178V4.52464H130.152C130.36 4.51488 130.544 4.46607 130.702 4.37822C130.821 4.31965 130.945 4.22692 131.074 4.10002V6.36954C130.945 6.24264 130.821 6.1499 130.702 6.09134C130.544 6.00348 130.36 5.95468 130.152 5.94492H127.178V8.97582C127.178 9.20033 127.222 9.43948 127.311 9.69328C127.411 9.99588 127.539 10.2204 127.698 10.3668H124.486Z" fill="white"/>
<path d="M95.9247 30.5637C95.343 30.9037 94.7977 31.1901 94.2888 31.4227C93.6707 31.7269 93.0527 31.9775 92.4347 32.1743C90.9806 32.6575 89.4991 32.8991 87.9905 32.8991C85.1185 32.8991 82.6828 32.0938 80.6834 30.4832C79.6473 29.6421 78.8475 28.631 78.284 27.4498C77.6842 26.1971 77.3842 24.7923 77.3842 23.2354C77.3842 21.6963 77.6842 20.2915 78.284 19.0209C78.8475 17.8577 79.6473 16.8555 80.6834 16.0144C82.6828 14.4038 85.1185 13.5985 87.9905 13.5985C90.9897 13.5985 93.4799 14.2964 95.4612 15.6923V18.994C94.0434 17.3297 91.7803 16.4976 88.6721 16.4976C86.8362 16.4976 85.273 17.0613 83.9825 18.1887C82.5647 19.4414 81.8558 21.1237 81.8558 23.2354C81.8558 25.365 82.5647 27.0561 83.9825 28.3088C85.2548 29.4363 86.809 30 88.6448 30C89.7536 30 90.8533 29.8479 91.9439 29.5436V25.5976C91.9439 25.186 91.8621 24.7386 91.6986 24.2554C91.5168 23.6828 91.2805 23.2622 90.9896 22.9938H96.879C96.5881 23.2622 96.3518 23.6828 96.1701 24.2554C96.0065 24.7386 95.9247 25.186 95.9247 25.5976V30.5637Z" fill="white"/>
<path fill-rule="evenodd" clip-rule="evenodd" d="M57.7628 16.1218C56.036 14.5827 53.882 13.8132 51.3009 13.8132H42.6578C42.9486 14.0816 43.1849 14.5022 43.3667 15.0749C43.5303 15.558 43.6121 16.0054 43.6121 16.417V30.0537C43.6121 30.4653 43.5303 30.9037 43.3667 31.369C43.1849 31.9238 42.9486 32.3354 42.6578 32.6038H51.3009C53.882 32.6038 56.036 31.8433 57.7628 30.3221C58.6898 29.5347 59.3987 28.5683 59.8895 27.423C60.4166 26.1882 60.6802 24.7923 60.6802 23.2354C60.6802 21.6963 60.4166 20.3004 59.8895 19.0477C59.3987 17.9024 58.6898 16.9271 57.7628 16.1218ZM50.5647 29.651H47.5928V16.766H50.5647C52.2552 16.766 53.6094 17.3029 54.6273 18.3766C55.7179 19.5399 56.2632 21.1594 56.2632 23.2354C56.2632 25.3113 55.7179 26.9219 54.6273 28.0672C53.6094 29.1231 52.2552 29.651 50.5647 29.651Z" fill="white"/>
<path d="M74.97 29.2484C74.2066 29.5526 73.4068 29.6957 72.5706 29.6779H66.7904V24.497H72.2434C72.6252 24.5149 72.9614 24.6044 73.2523 24.7655C73.4704 24.8728 73.6976 25.0428 73.9339 25.2755V21.1147C73.6976 21.3473 73.4704 21.5174 73.2523 21.6247C72.9614 21.7858 72.6252 21.8753 72.2434 21.8932H66.7904V16.7392H72.298C72.9887 16.7213 73.5976 16.8108 74.1248 17.0076C74.5065 17.1687 74.8973 17.4013 75.2972 17.7055V13.8132H61.8554C62.1462 14.0816 62.3825 14.5022 62.5643 15.0749C62.7278 15.558 62.8096 16.0054 62.8096 16.417V30.0537C62.8096 30.4653 62.7278 30.9037 62.5643 31.369C62.3825 31.9238 62.1462 32.3354 61.8554 32.6038H75.488L76.5241 28.3894C76.2696 28.5683 76.0424 28.7115 75.8425 28.8189C75.5516 28.9799 75.2608 29.1231 74.97 29.2484Z" fill="white"/>
<path d="M111.182 29.2484C110.418 29.5526 109.619 29.6957 108.782 29.6779H103.002V24.497H108.455C108.837 24.5149 109.173 24.6044 109.464 24.7655C109.682 24.8728 109.909 25.0428 110.146 25.2755V21.1147C109.909 21.3473 109.682 21.5174 109.464 21.6247C109.173 21.7858 108.837 21.8753 108.455 21.8932H103.002V16.7392H108.51C109.2 16.7213 109.809 16.8108 110.337 17.0076C110.718 17.1687 111.109 17.4013 111.509 17.7055V13.8132H98.0671C98.358 14.0816 98.5943 14.5022 98.776 15.0749C98.9396 15.558 99.0214 16.0054 99.0214 16.417V30.0537C99.0214 30.4653 98.9396 30.9037 98.776 31.369C98.5943 31.9238 98.358 32.3354 98.0671 32.6038H111.7L112.736 28.3894C112.481 28.5683 112.254 28.7115 112.054 28.8189C111.763 28.9799 111.473 29.1231 111.182 29.2484Z" fill="white"/>
<path d="M113.969 32.6038C114.441 32.2101 114.678 31.7359 114.678 31.1811V13.8132H116.75L129.128 25.4902V15.2359C129.128 14.6812 128.892 14.2069 128.419 13.8132H133C132.527 14.2069 132.291 14.6812 132.291 15.2359V32.6038H130.137L117.84 20.9268V31.1811C117.84 31.7359 118.077 32.2101 118.549 32.6038H113.969Z" fill="white"/>
<path d="M0.553398 0.151612C4.2174 1.2495 7.53132 3.26041 10.1741 5.98955L16.2544 12.2684L12.9006 15.7331L6.43816 9.66549C3.66727 7.06387 1.62558 3.80198 0.510753 0.195612L0.49141 0.133037L0.553398 0.151612Z" fill="white"/>
<path d="M28.7476 24.0818C30.1046 22.7458 30.1046 20.5797 28.7476 19.2437L28.2562 18.7599C28.2562 18.7599 28.3175 19.6652 27.0316 20.9331L25.7992 22.1466L21.9297 18.1444L18.7072 21.1647L22.8507 25.0494L21.6221 26.259C20.3322 27.5289 19.4108 27.4685 19.4108 27.4685L19.9022 27.9523C21.2592 29.2883 23.4593 29.2883 24.8163 27.9523L28.7476 24.0818Z" fill="white"/>
<path d="M0 30.6133L3.43988 34C3.43988 34 3.37851 33.0928 4.66842 31.8228L8.10828 28.4362L5.65125 26.0171L2.21136 29.4038C0.921452 30.6737 0 30.6133 0 30.6133Z" fill="white"/>
<path d="M30.2219 31.8228L26.782 28.4361L29.239 26.0171L32.6789 29.4038C33.9688 30.6737 34.8903 30.6133 34.8903 30.6133L31.4504 34C31.4504 34 31.5118 33.0928 30.2219 31.8228Z" fill="white"/>
<path d="M12.0396 25.0494L13.2681 26.259C14.558 27.5289 15.4795 27.4685 15.4795 27.4685L14.9881 27.9523C13.6311 29.2883 11.431 29.2883 10.074 27.9523L6.14266 24.0818C4.78566 22.7458 4.78566 20.5797 6.14265 19.2437L6.63407 18.7599C6.63407 18.7599 6.57285 19.6648 7.85769 20.9322L9.09113 22.1466L24.714 5.99616C27.3581 3.26279 30.731 1.23208 34.3989 0.133043C33.2826 3.74416 31.22 7.0649 28.4437 9.66811L12.0396 25.0494Z" fill="white"/>
</g>
<defs>
<clipPath id="clip0_64_102">
<rect width="133" height="34" fill="white"/>
</clipPath>
</defs>
</svg>
